<svg xmlns="http://www.w3.org/2000/svg" width="32" height="32" fill="none" viewBox="0 0 41 41"><g fill="#52CEC7" clip-path="url(#a)"><path d="M37.37 8.701a20.609 20.609 0 0 0-5.58-5.58l-.946.947a1.977 1.977 0 0 1-2.329.31 17.603 17.603 0 0 0-2.786-1.158 1.975 1.975 0 0 1-1.425-1.863V.026a20.247 20.247 0 0 0-7.89 0v1.33a1.975 1.975 0 0 1-1.425 1.864c-.96.306-1.893.693-2.787 1.158a1.977 1.977 0 0 1-2.329-.31l-.946-.947a20.608 20.608 0 0 0-5.58 5.58l.946.947a1.977 1.977 0 0 1 .31 2.329 17.614 17.614 0 0 0-1.157 2.786 1.976 1.976 0 0 1-1.864 1.424H.252a20.245 20.245 0 0 0 0 7.892h1.33a1.976 1.976 0 0 1 1.864 1.424c.305.96.693 1.892 1.157 2.786a1.977 1.977 0 0 1-.31 2.33l-.946.946a20.606 20.606 0 0 0 5.58 5.58l.946-.947a1.977 1.977 0 0 1 2.33-.31 17.58 17.58 0 0 0 2.786 1.158 1.976 1.976 0 0 1 1.424 1.864v1.33a20.25 20.25 0 0 0 7.891 0v-1.33a1.976 1.976 0 0 1 1.425-1.864c.96-.306 1.892-.693 2.786-1.158a1.977 1.977 0 0 1 2.329.31l.947.947a20.607 20.607 0 0 0 5.58-5.58l-.947-.947a1.978 1.978 0 0 1-.31-2.329 17.62 17.62 0 0 0 1.157-2.786 1.976 1.976 0 0 1 1.864-1.424h1.33a20.244 20.244 0 0 0 0-7.892h-1.33a1.976 1.976 0 0 1-1.864-1.424 17.62 17.62 0 0 0-1.157-2.786 1.976 1.976 0 0 1 .31-2.33l.947-.946ZM20.36 33.797a13.663 13.663 0 1 1 0-27.327 13.663 13.663 0 0 1 0 27.327Z"/><path d="M24.458 11.593H16.26v9.638h-2.733l6.832 7.442 6.832-7.442h-2.733v-9.638Zm-4.099 6.832a2.045 2.045 0 0 1 .683 3.973v.736h-1.366v-.736a2.047 2.047 0 0 1-1.366-1.923.683.683 0 0 1 1.366 0 .683.683 0 1 0 .683-.684 2.044 2.044 0 0 1-.683-3.973v-.809h1.366v.81a2.046 2.046 0 0 1 1.367 1.923h-1.367a.683.683 0 1 0-.683.683Z"/></g><defs><clipPath id="a"><path fill="#fff" d="M.358.133h40v40h-40z"/></clipPath></defs></svg>