<svg xmlns="http://www.w3.org/2000/svg" width="32" height="32" fill="none"><path fill="#52CEC7" d="M16.314.737C7.668.737.634 7.687.634 16.227c0 6.372 4.043 12.174 10.059 14.439a.978.978 0 0 0 1.284-.616l2.94-9.274a.96.96 0 0 0-.46-1.137c-1.273-.694-2.063-2.001-2.063-3.413 0-2.136 1.757-3.872 3.92-3.872 2.16 0 3.92 1.736 3.92 3.872 0 1.412-.79 2.72-2.062 3.415a.959.959 0 0 0-.46 1.136l2.94 9.274a.98.98 0 0 0 1.282.616c6.017-2.264 10.059-8.068 10.059-14.44 0-8.542-7.034-15.49-15.68-15.49Z"/></svg>